<svg xmlns="http://www.w3.org/2000/svg" width="34" height="33" viewBox="0 0 34 33"><path fill-rule="evenodd" clip-rule="evenodd" fill="#FFF" d="M16.999 0C7.612 0 0 7.574 0 16.919c0 7.474 4.871 13.815 11.626 16.052.85.155 1.16-.367 1.16-.815 0-.402-.015-1.466-.023-2.877C8.035 30.3 7.037 27.01 7.037 27.01c-.773-1.954-1.887-2.475-1.887-2.475-1.544-1.05.117-1.028.117-1.028 1.706.12 2.604 1.743 2.604 1.743 1.516 2.585 3.979 1.839 4.947 1.406.154-1.093.594-1.839 1.079-2.262-3.775-.427-7.744-1.878-7.744-8.361 0-1.847.662-3.357 1.75-4.54-.174-.427-.758-2.147.167-4.477 0 0 1.427-.455 4.675 1.734a16.343 16.343 0 0 1 4.256-.569c1.444.007 2.898.194 4.256.569 3.246-2.189 4.67-1.734 4.67-1.734.927 2.329.344 4.049.169 4.477 1.09 1.183 1.747 2.693 1.747 4.54 0 6.499-3.975 7.929-7.762 8.348.61.522 1.154 1.555 1.154 3.133 0 2.262-.021 4.086-.021 4.641 0 .452.306.979 1.169.814C29.134 30.727 34 24.391 34 16.919 34 7.574 26.388 0 16.999 0z"/></svg>