<svg xmlns="http://www.w3.org/2000/svg" width="90" height="84" viewBox="0 0 90 84"><path fill="#FFF" d="M50.466 84H39.534c-.273 0-.538-.087-.757-.249l-10.426-7.709a1.264 1.264 0 0 1-.503-.854l-3.001-23.113-4.826-8.506a1.261 1.261 0 0 1-.162-.538l-.832-12.44-6.105 4.184a1.273 1.273 0 0 1-1.618-.148L.372 23.739a1.265 1.265 0 0 1 .139-1.909l8.107-6.016c.164-.122.355-.202.557-.235l8.655-1.388-4.767-8.725a1.26 1.26 0 0 1 .129-1.401 1.272 1.272 0 0 1 1.35-.415L26.37 7.169C31.293 2.476 37.679 0 44.891 0c.037 0 .074.001.109.004.036-.003.072-.004.109-.004 7.212 0 13.598 2.476 18.521 7.169L75.457 3.65a1.275 1.275 0 0 1 1.35.415c.324.398.375.951.129 1.401l-4.767 8.725 8.656 1.388c.202.032.393.113.557.235l8.107 6.016a1.264 1.264 0 0 1 .139 1.909L78.695 34.628a1.273 1.273 0 0 1-1.618.148l-6.105-4.184-.832 12.44a1.261 1.261 0 0 1-.162.538l-4.826 8.506-3.001 23.113a1.264 1.264 0 0 1-.503.854l-10.426 7.709a1.272 1.272 0 0 1-.756.248zm-10.512-2.53h10.093l9.656-7.139 2.964-22.825c.021-.162.073-.318.154-.46l4.806-8.47.962-14.37a1.271 1.271 0 0 1 1.987-.958l7.073 4.847 9.146-9.11-6.679-4.956-10.12-1.623a1.265 1.265 0 0 1-.914-1.853l4.152-7.6-9.596 2.855c-.449.134-.937.01-1.268-.324-4.49-4.535-10.435-6.939-17.196-6.954a1.557 1.557 0 0 1-.348 0c-6.761.015-12.706 2.419-17.195 6.953-.33.333-.817.458-1.268.324l-9.596-2.855 4.152 7.6a1.262 1.262 0 0 1-.913 1.853l-10.12 1.623-6.68 4.956 9.146 9.11 7.073-4.847a1.274 1.274 0 0 1 1.273-.097c.411.198.684.601.714 1.055l.962 14.37 4.806 8.47c.081.142.133.298.154.46l2.964 22.825 9.656 7.14z"/><path fill="#FFF" d="M54.954 71.227c-.001-.004-5.197-2.545-5.197-2.545h-9.55s-5.23 3.081-5.233 3.086c2.222-5.743 3.491-25.177 3.491-32.211 0-7.651-1.5-21.455-4.098-27.531 2.898-2.756 6.394-4.483 10.421-4.483 4.221 0 7.857 1.716 10.831 4.688.004-.01.008-.039.013-.049-2.519 6.012-3.971 19.853-3.971 27.38 0 6.819 1.195 26.047 3.293 31.665z"/></svg>